<?xml version="1.0" encoding="iso-8859-1"?>
<!-- Generator: Adobe Illustrator 19.0.0, SVG Export Plug-In . SVG Version: 6.00 Build 0)  -->
<svg xmlns="http://www.w3.org/2000/svg" xmlns:xlink="http://www.w3.org/1999/xlink" version="1.1" id="Layer_1" x="0px" y="0px" viewBox="0 0 512.001 512.001" style="enable-background:new 0 0 512.001 512.001;" xml:space="preserve">
<path style="fill:#00AAF0;" d="M467.863,0h-17.655c-4.875,0-8.828,3.953-8.828,8.828v354.157  c0,60.123-46.658,111.729-106.75,113.649c-34.667,1.108-65.943-13.869-86.918-38.02l-42.065,1.789  c26.542,44.768,76.37,74.179,132.674,71.421c78.165-3.83,138.368-70.901,138.368-149.16V8.828C476.691,3.953,472.738,0,467.863,0z"/>
<path style="fill:#0096DC;" d="M441.38,8.828v354.157c0,60.123-46.658,111.729-106.75,113.649  c-34.667,1.108-65.943-13.869-86.918-38.02l-21.606,0.919c23.137,33.108,61.471,54.814,104.928,54.814c70.691,0,128-57.308,128-128  V0h-8.828C445.333,0,441.38,3.953,441.38,8.828z"/>
<path style="fill:#5B5D6E;" d="M476.691,211.863h-79.448v-35.31h79.448c4.875,0,8.828,3.953,8.828,8.828v17.655  C485.518,207.91,481.566,211.863,476.691,211.863z"/>
<path style="fill:#464655;" d="M397.242,211.863h35.31v-21.388c0-4.834-0.865-9.507-2.348-13.922h-32.962V211.863z"/>
<path style="fill:#5B5D6E;" d="M292.535,302.106l-57.629,12.469c-9.369,2.027-19.063,2.027-28.433,0l-57.629-12.469l71.846-72.588  L292.535,302.106z"/>
<path style="fill:#464655;" d="M148.844,302.106l57.629,12.469c4.685,1.013,9.45,1.519,14.217,1.519v-86.577L148.844,302.106z"/>
<path style="fill:#5B5D6E;" d="M353.104,123.586H88.276c-14.626,0-26.483,11.857-26.483,26.483v26.483h317.794v-26.483  C379.587,135.443,367.729,123.586,353.104,123.586z"/>
<path style="fill:#464655;" d="M158.897,123.586H88.276c-14.626,0-26.483,11.857-26.483,26.483v26.483h70.621v-26.483  C132.414,135.443,144.271,123.586,158.897,123.586z"/>
<path style="fill:#00AAF0;" d="M288.328,323.164c-13.172,0.009-25.56-7.414-31.612-19.518l-18.371-36.733  c-3.362-6.733-10.13-10.914-17.655-10.914s-14.293,4.181-17.655,10.914l-18.37,36.733c-7.104,14.207-22.931,21.983-38.508,18.836  l-98.388-19.681c-12.329-2.456-21.286-13.378-21.286-25.964v-86.363c0-12.388,8.715-23.267,20.715-25.87  c42.75-9.233,105.983-14.535,173.492-14.535s130.741,5.302,173.483,14.535c12.008,2.603,20.724,13.482,20.724,25.87v86.363  c0,12.586-8.957,23.509-21.293,25.965l-98.379,19.681C292.923,322.949,290.613,323.164,288.328,323.164z"/>
<path style="fill:#C7CFE2;" d="M220.69,238.345c14.259,0,27.078,7.923,33.448,20.672l18.37,36.733  c3.552,7.103,11.457,10.983,19.25,9.422l98.388-19.681c4.113-0.819,7.095-4.457,7.095-8.655v-86.363  c0-4.138-2.862-7.758-6.802-8.612C348.871,172.88,287,167.725,220.69,167.725S92.509,172.88,50.931,181.863  c-3.932,0.853-6.793,4.474-6.793,8.612v86.363c0,4.199,2.983,7.837,7.086,8.655l98.397,19.681c7.724,1.569,15.699-2.311,19.25-9.422  l18.37-36.733C193.613,246.267,206.431,238.345,220.69,238.345z"/>
<path style="fill:#AFB9D2;" d="M390.441,181.862C348.871,172.88,287,167.725,220.69,167.725S92.509,172.88,50.931,181.863  c-3.932,0.853-6.793,4.474-6.793,8.612v86.363c0,4.199,2.983,7.837,7.086,8.655l98.397,19.681c1.146,0.233,2.3,0.345,3.442,0.345  c6.552,0,12.783-3.712,15.808-9.769l18.37-36.733c6.371-12.751,19.19-20.673,33.449-20.673s27.078,7.923,33.448,20.672l18.37,36.733  c3.027,6.052,9.215,9.766,15.799,9.766c1.143,0,2.298-0.113,3.451-0.343l98.388-19.681c4.113-0.819,7.095-4.457,7.095-8.655v-86.363  C397.242,186.336,394.38,182.716,390.441,181.862z M160.422,186.905c5.577-0.281,11.176-0.551,16.902-0.754l35.169,35.169  c-4.788,0.71-9.4,2.029-13.747,3.908L160.422,186.905z M153.084,287.86l-91.291-18.26v-71.944  c18.587-3.616,40.933-6.474,65.528-8.543l51.281,51.281c-2.727,3.264-5.187,6.798-7.15,10.726L153.084,287.86z M379.587,269.599  l-54.806,10.959l-90.927-95.06c56.344,0.591,108.425,4.898,145.734,12.16v71.941H379.587z"/>
<g>
	<circle style="fill:#D5DCED;" cx="335.449" cy="229.518" r="17.655"/>
	<circle style="fill:#D5DCED;" cx="128" cy="251.587" r="13.241"/>
</g>
<path style="fill:#707487;" d="M247.711,438.612l-36.028,1.533l-5.682,0.811c8.864,14.797,20.31,27.853,33.663,38.647  c8.846-4.494,20.577-11.264,32.184-20.338C262.865,453.522,254.678,446.633,247.711,438.612z"/>
<path style="fill:#5B5D6E;" d="M256.281,470.135c5.038-3.172,10.302-6.751,15.57-10.87c-4.16-2.659-8.113-5.589-11.869-8.766  c-0.511-0.426-1.028-0.839-1.533-1.274c-3.79-3.324-7.433-6.807-10.738-10.613l-21.606,0.919  C234.37,451.355,244.6,461.689,256.281,470.135z"/>
<path style="fill:#464655;" d="M220.69,450.208c-35.224,0-61.793-15.181-61.793-35.31c0-4.879,3.948-8.828,8.828-8.828  s8.828,3.948,8.828,8.828c0,7.198,17.198,17.655,44.138,17.655s44.138-10.457,44.138-17.655c0-4.879,3.948-8.828,8.828-8.828  s8.828,3.948,8.828,8.828C282.483,435.027,255.914,450.208,220.69,450.208z"/>
<path style="fill:#FFC850;" d="M467.863,0h-17.655c-4.875,0-8.828,3.953-8.828,8.828V35.31h35.31V8.828  C476.691,3.953,472.738,0,467.863,0z"/>
<path style="fill:#E1A546;" d="M459.035,0h-8.828c-4.875,0-8.828,3.953-8.828,8.828V35.31h17.655V0z"/>
<rect x="441.38" y="105.931" style="fill:#5B5D6E;" width="35.31" height="26.483"/>
<rect x="459.035" y="105.931" style="fill:#707487;" width="17.655" height="26.483"/>
<g>
</g>
<g>
</g>
<g>
</g>
<g>
</g>
<g>
</g>
<g>
</g>
<g>
</g>
<g>
</g>
<g>
</g>
<g>
</g>
<g>
</g>
<g>
</g>
<g>
</g>
<g>
</g>
<g>
</g>
</svg>
